<?xml version="1.0" standalone="no"?>
<!DOCTYPE svg PUBLIC "-//W3C//DTD SVG 20010904//EN"
 "http://www.w3.org/TR/2001/REC-SVG-20010904/DTD/svg10.dtd">
<svg version="1.0" xmlns="http://www.w3.org/2000/svg"
 width="256.000000pt" height="134.000000pt" viewBox="0 0 256.000000 134.000000"
 preserveAspectRatio="xMidYMid meet">

<g transform="translate(0.000000,134.000000) scale(0.100000,-0.100000)"
fill="#000000" stroke="none">
<path d="M1140 1110 l0 -50 -135 0 -135 0 0 -95 0 -95 65 0 65 0 0 -60 0 -60
-65 0 -65 0 0 -95 0 -95 65 0 66 0 -3 -92 -3 -93 -27 -3 -28 -3 0 -96 0 -96
51 6 c65 8 115 45 142 106 17 37 21 67 21 158 l1 113 208 0 207 0 0 95 0 95
-206 2 -206 3 -2 58 -1 57 208 0 207 0 0 95 0 94 -137 3 -138 3 -3 48 -3 47
-75 0 -74 0 0 -50z"/>
<path d="M1960 1110 l0 -50 -155 0 -155 0 0 -95 0 -95 310 0 310 0 0 -25 c0
-34 -25 -82 -49 -95 -12 -6 -125 -10 -295 -10 l-276 0 0 -207 c0 -226 7 -260
61 -310 43 -39 72 -43 318 -43 226 0 239 1 281 22 66 34 102 97 108 193 l5 75
-77 0 -76 0 0 -38 c0 -21 -5 -43 -12 -50 -9 -9 -75 -12 -235 -12 l-223 0 0 90
0 90 215 0 c242 0 257 3 317 66 68 72 82 118 86 292 l4 152 -151 0 -151 0 0
50 0 50 -80 0 -80 0 0 -50z"/>
<path d="M330 1049 c-64 -26 -127 -98 -165 -189 -16 -38 -20 -81 -25 -265 l-5
-220 -35 -3 -35 -3 2 -92 1 -92 361 -3 361 -2 0 95 0 95 -250 0 -250 0 0 181
c0 199 8 244 51 290 l27 29 136 0 136 0 0 -60 0 -60 75 0 75 0 0 155 0 155
-217 -1 c-120 0 -229 -5 -243 -10z"/>
<path d="M410 598 l0 -98 75 0 76 0 -3 96 -3 96 -73 1 -72 2 0 -97z"/>
<path d="M1250 265 l0 -85 65 0 65 0 0 85 0 85 -65 0 -65 0 0 -85z"/>
</g>
</svg>
